<?xml version="1.0" standalone="no"?>
<!DOCTYPE svg PUBLIC "-//W3C//DTD SVG 20010904//EN"
 "http://www.w3.org/TR/2001/REC-SVG-20010904/DTD/svg10.dtd">
<svg version="1.0" xmlns="http://www.w3.org/2000/svg"
 width="536.000000pt" height="536.000000pt" viewBox="0 0 536.000000 536.000000"
 preserveAspectRatio="xMidYMid meet">
<metadata>
Created by potrace 1.14, written by Peter Selinger 2001-2017
</metadata>
<g transform="translate(0.000000,536.000000) scale(0.100000,-0.100000)"
fill="#000000" stroke="none">
<path d="M0 2680 l0 -2680 2680 0 2680 0 0 2680 0 2680 -2680 0 -2680 0 0
-2680z m2965 2055 c-62 -440 -72 -1001 -24 -1290 14 -85 40 -194 48 -199 3 -2
7 93 8 212 3 393 53 783 155 1202 16 69 34 132 39 140 12 21 11 -477 -1 -641
-19 -247 -59 -527 -107 -749 -3 -14 26 25 65 86 66 106 70 117 87 214 9 57 32
164 50 239 37 149 124 426 131 418 3 -2 0 -41 -5 -87 -6 -45 -14 -157 -17
-248 l-7 -167 65 90 c66 93 203 272 221 290 13 13 -16 -36 -130 -218 -125
-200 -122 -192 -60 -150 56 39 264 143 285 143 19 0 14 -43 -13 -115 -66 -176
-189 -268 -379 -284 l-78 -6 -50 -90 c-27 -49 -63 -114 -79 -143 -33 -59 -29
-58 48 4 154 126 405 228 608 249 l70 7 -25 -27 c-162 -176 -486 -325 -707
-325 l-42 0 -57 -107 c-52 -97 -58 -104 -66 -82 -5 13 -61 156 -125 317 l-116
294 7 88 c7 99 46 353 77 510 33 168 127 535 135 528 1 -2 -4 -48 -11 -103z
m-309 -168 c1 -230 12 -386 45 -641 l19 -149 -61 -151 c-34 -82 -66 -161 -72
-175 -10 -24 -12 -20 -18 39 -11 102 -10 469 1 645 11 174 41 429 66 568 9 48
17 87 18 87 0 0 1 -100 2 -223z m-506 -39 c-19 -155 -28 -480 -20 -691 16
-367 59 -673 140 -998 l30 -117 -29 -70 c-16 -39 -27 -73 -23 -76 3 -3 26 -6
52 -6 l47 0 26 -77 c36 -112 51 -227 44 -357 l-6 -111 46 110 45 110 -37 150
c-20 83 -38 156 -40 163 -3 9 14 12 65 12 l70 0 1 -87 1 -88 40 87 41 88 64 0
63 0 -13 -32 c-57 -135 -100 -234 -105 -242 -6 -11 -8 -12 133 79 61 39 158
99 217 133 89 52 114 62 153 62 44 0 47 2 41 23 -5 20 6 28 102 79 185 98 707
326 719 314 8 -7 -248 -245 -337 -313 -296 -225 -714 -422 -1051 -497 -22 -5
-31 -18 -53 -76 -14 -39 -26 -73 -26 -75 0 -2 53 21 118 51 321 153 616 269
922 363 172 52 401 113 407 107 2 -2 -20 -23 -49 -48 -290 -243 -652 -435
-1037 -548 -96 -28 -347 -80 -388 -80 -34 0 -29 9 -84 -149 -16 -47 -29 -89
-29 -94 0 -5 26 6 58 24 491 278 1109 523 1602 633 l65 15 -30 -25 c-287 -234
-763 -475 -1190 -604 -240 -72 -342 -90 -509 -90 l-141 0 -24 53 c-180 395
-234 534 -306 782 -129 447 -193 876 -200 1340 -2 138 -1 230 1 205 2 -25 9
-103 15 -175 42 -512 216 -1189 398 -1555 93 -186 123 -297 125 -472 0 -58 4
-101 7 -95 4 7 24 61 44 120 l38 109 -41 121 c-264 774 -338 1697 -196 2464
13 73 24 136 24 139 0 4 2 5 5 2 3 -3 1 -43 -5 -90z m237 -69 c-7 -113 8 -459
28 -639 18 -155 59 -416 80 -508 l15 -62 -67 -168 c-36 -92 -69 -171 -73 -175
-4 -4 -10 18 -14 50 -64 534 -57 1068 21 1555 10 68 16 40 10 -53z m1553
-1028 c0 -19 -204 -211 -291 -274 -120 -86 -305 -177 -438 -216 -57 -17 -111
-31 -121 -31 -11 0 -23 16 -35 47 l-18 46 29 21 c171 125 478 282 729 372 125
45 145 50 145 35z m-2305 -500 c93 -436 273 -885 508 -1272 l46 -74 -44 -3
-44 -3 -27 -70 c-15 -39 -31 -72 -34 -74 -9 -6 -116 219 -184 387 -161 399
-266 892 -281 1318 l-5 155 19 -120 c11 -66 31 -176 46 -244z m2380 273 c-179
-166 -343 -286 -540 -397 -113 -63 -291 -141 -304 -133 -9 6 -55 126 -49 130
1 2 35 14 73 26 199 65 555 234 756 359 63 38 116 70 119 70 3 0 -22 -25 -55
-55z m-2605 -435 c55 -497 222 -994 476 -1416 l74 -123 -52 -130 c-59 -148
-46 -149 -130 6 -184 339 -305 729 -364 1169 -15 110 -32 605 -21 594 4 -3 11
-48 17 -100z m-200 -437 c74 -467 267 -963 529 -1361 l55 -83 -25 -18 c-29
-22 -117 -48 -179 -52 l-45 -3 -42 85 c-152 308 -269 711 -318 1100 -19 148
-31 541 -19 626 l8 59 8 -110 c4 -60 17 -170 28 -243z m3060 -188 c-169 -171
-363 -329 -590 -481 -99 -66 -261 -163 -272 -163 -3 0 -13 18 -23 40 l-18 40
-246 1 -246 1 175 57 c245 81 376 131 597 227 196 86 516 248 633 322 36 22
67 41 70 41 2 1 -34 -38 -80 -85z m-3285 -270 c86 -360 252 -719 455 -985 l60
-79 -114 0 -114 0 -40 68 c-192 317 -304 736 -301 1125 l1 152 14 -90 c8 -49
25 -135 39 -191z m3351 67 c-12 -19 -237 -212 -336 -288 -183 -140 -506 -342
-521 -325 -9 9 -61 134 -57 136 2 1 44 17 93 35 197 72 563 267 745 396 80 57
84 60 76 46z m-3511 -458 c52 -235 162 -456 305 -616 l52 -58 -113 3 -114 3
-50 100 c-53 104 -93 218 -120 340 -23 103 -31 347 -15 469 l14 101 12 -135
c7 -74 20 -167 29 -207z m3315 76 c-163 -152 -545 -436 -574 -426 -5 2 -20 27
-33 55 l-23 53 28 10 c60 23 183 81 282 134 110 59 357 212 366 226 3 5 8 9
12 9 4 -1 -22 -28 -58 -61z m-3519 -434 c34 -102 80 -190 139 -264 l40 -51
-63 0 -64 0 -31 68 c-60 129 -97 349 -77 448 8 38 9 36 17 -36 5 -41 23 -115
39 -165z m3412 91 c-15 -26 -224 -245 -279 -292 -52 -44 -55 -46 -73 -30 -24
22 -84 133 -79 147 2 6 55 30 118 54 63 24 160 64 215 89 115 52 108 50 98 32z"/>
</g>
</svg>
